<svg width="1280" height="640" viewBox="0 0 1280 640" fill="none" xmlns="http://www.w3.org/2000/svg">
  <defs>
    <linearGradient id="bg" x1="0" y1="0" x2="1280" y2="640" gradientUnits="userSpaceOnUse">
      <stop stop-color="#EEF4FF"/>
      <stop offset="0.48" stop-color="#F7F5FF"/>
      <stop offset="1" stop-color="#F8FBFF"/>
    </linearGradient>
    <linearGradient id="blue" x1="120" y1="490" x2="1160" y2="160" gradientUnits="userSpaceOnUse">
      <stop stop-color="#2563EB"/>
      <stop offset="1" stop-color="#8B5CF6"/>
    </linearGradient>
    <filter id="shadow" x="-20%" y="-20%" width="140%" height="140%">
      <feDropShadow dx="0" dy="18" stdDeviation="20" flood-color="#0F172A" flood-opacity="0.14"/>
    </filter>
  </defs>
  <rect width="1280" height="640" fill="url(#bg)"/>
  <circle cx="1120" cy="120" r="260" fill="#E0E7FF"/>
  <circle cx="90" cy="540" r="260" fill="#DBEAFE"/>
  <rect x="74" y="70" width="1132" height="500" rx="34" fill="white" fill-opacity="0.82" filter="url(#shadow)"/>
  <rect x="106" y="102" width="248" height="436" rx="22" fill="#F8FAFC" stroke="#D9E2F2"/>
  <rect x="132" y="132" width="164" height="18" rx="9" fill="#CBD5E1"/>
  <rect x="132" y="174" width="190" height="44" rx="12" fill="#DBEAFE"/>
  <rect x="132" y="244" width="190" height="44" rx="12" fill="#EDE9FE"/>
  <rect x="132" y="314" width="190" height="44" rx="12" fill="#E0F2FE"/>
  <rect x="132" y="412" width="150" height="16" rx="8" fill="#CBD5E1"/>
  <rect x="132" y="452" width="116" height="16" rx="8" fill="#CBD5E1"/>
  <g transform="translate(402 112)">
    <text x="0" y="45" font-family="Segoe UI, Microsoft YaHei, Arial, sans-serif" font-size="30" font-weight="700" fill="#2563EB">StoryMemory Studio</text>
    <text x="0" y="132" font-family="Segoe UI, Microsoft YaHei, Arial, sans-serif" font-size="70" font-weight="850" fill="#111827">AI long-form fiction</text>
    <text x="0" y="208" font-family="Segoe UI, Microsoft YaHei, Arial, sans-serif" font-size="70" font-weight="850" fill="#111827">that remembers.</text>
    <text x="0" y="276" font-family="Segoe UI, Microsoft YaHei, Arial, sans-serif" font-size="30" font-weight="600" fill="#475569">SQL Story Memory + Long-context Prompt Builder</text>
    <text x="0" y="320" font-family="Segoe UI, Microsoft YaHei, Arial, sans-serif" font-size="30" font-weight="600" fill="#475569">DeepSeek · GLM-5.2 · Ollama · OpenAI-compatible</text>
    <rect x="0" y="370" width="245" height="54" rx="14" fill="url(#blue)"/>
    <text x="28" y="405" font-family="Segoe UI, Microsoft YaHei, Arial, sans-serif" font-size="22" font-weight="800" fill="white">Local-first MVP</text>
    <rect x="270" y="370" width="260" height="54" rx="14" fill="#F8FAFC" stroke="#CBD5E1"/>
    <text x="298" y="405" font-family="Segoe UI, Microsoft YaHei, Arial, sans-serif" font-size="22" font-weight="800" fill="#1E293B">Windows exe</text>
  </g>
  <text x="106" y="600" font-family="Segoe UI, Microsoft YaHei, Arial, sans-serif" font-size="20" font-weight="600" fill="#64748B">github.com/Jackeyhate9/StoryMemory-Studio</text>
</svg>
